<svg xmlns="http://www.w3.org/2000/svg" viewBox="0 0 512 109" fill="none">
  <path d="M0 0h23.3v86.5H0V0zm0 0" fill="#FF6F5C"/>
  <path d="M40.5 27.9c0-4.7 3.8-8.5 8.5-8.5s8.5 3.8 8.5 8.5-3.8 8.5-8.5 8.5-8.5-3.8-8.5-8.5zm1.5 17.3h14v41.3h-14V45.2zm0 0" fill="#FF6F5C"/>
  <path d="M73.8 45.2h13.3v5.9c2.8-4.4 7.5-7.1 13.5-7.1 10.7 0 17.5 7.5 17.5 19v23.5h-14V65.2c0-5.9-3.1-9.5-8.2-9.5-5.3 0-8.8 3.9-8.8 10.1v20.7H73.8V45.2zm0 0" fill="#FF6F5C"/>
  <path d="M134.2 27.9c0-4.7 3.8-8.5 8.5-8.5s8.5 3.8 8.5 8.5-3.8 8.5-8.5 8.5-8.5-3.8-8.5-8.5zm1.5 17.3h14v41.3h-14V45.2zm0 0" fill="#FF6F5C"/>
  <path d="M168.5 66c0-12.5 9.1-22 21.8-22 12.5 0 21 9.5 21 23.4v3.1h-29c1.2 5.1 5.1 8.2 10.5 8.2 4.1 0 7.3-1.5 9.5-4.4l8.6 7.1c-4 5.5-10.7 8.5-18.8 8.5-13.5 0-22.6-9.2-22.6-23.9zm14-5.5h15.5c-.7-5-4-8.2-7.8-8.2-4.5 0-7.1 3.1-7.7 8.2zm0 0" fill="#FF6F5C"/>
  <path d="M263.2 45.2h13.3v5.9c2.8-4.4 7.5-7.1 13.5-7.1 10.7 0 17.5 7.5 17.5 19v23.5h-14V65.2c0-5.9-3.1-9.5-8.2-9.5-5.3 0-8.8 3.9-8.8 10.1v20.7h-13.3V45.2zm0 0" fill="#FF6F5C"/>
  <path d="M326.2 77.2l6.8-10c3.6 3.2 9.2 5.5 14 5.5 4.2 0 6.2-1.5 6.2-3.7 0-6.5-25.2-1.5-25.2-19 0-8.7 7.7-14 18.5-14 7.5 0 14 2.5 18.5 6.5l-6.7 9.8c-3.3-3-7.8-4.8-12-4.8-3.5 0-5.5 1.3-5.5 3.5 0 6.3 25 1.3 25 18.8 0 8.7-7.5 14.3-19 14.3-8.5-.1-16.2-3.1-20.6-6.9zm0 0" fill="#FF6F5C"/>
  <path d="M381.8 66c0-12.5 9.1-22 21.8-22 12.5 0 21 9.5 21 23.4v3.1h-29c1.2 5.1 5.1 8.2 10.5 8.2 4.1 0 7.3-1.5 9.5-4.4l8.6 7.1c-4 5.5-10.7 8.5-18.8 8.5-13.5 0-22.6-9.2-22.6-23.9zm14-5.5h15.5c-.7-5-4-8.2-7.8-8.2-4.5 0-7.1 3.1-7.7 8.2zm0 0" fill="#FF6F5C"/>
  <path d="M227.5 0h13.3v53.2l15.5-18h16l-18 20.5 19 31h-15.5l-12.5-21-4.5 5v16h-13.3V0z" fill="#FF6F5C"/>
  <path d="M440.2 66c0-12.5 9.1-22 21.8-22 12.5 0 21 9.5 21 23.4v3.1h-29c1.2 5.1 5.1 8.2 10.5 8.2 4.1 0 7.3-1.5 9.5-4.4l8.6 7.1c-4 5.5-10.7 8.5-18.8 8.5-13.5 0-22.6-9.2-22.6-23.9zm14-5.5h15.5c-.7-5-4-8.2-7.8-8.2-4.5 0-7.1 3.1-7.7 8.2z" fill="#FF6F5C"/>
  <circle cx="498" cy="78" r="10" fill="#FF6F5C"/>
</svg>
