<svg width="71" height="15" viewBox="0 0 71 15" fill="none" xmlns="http://www.w3.org/2000/svg">
<g clip-path="url(#clip0_3238_5122)">
<path d="M13.1173 9.40283H10.7984H9.25803H8.87755L6.55866 11.7214L4.23977 9.40283H3.85929H2.31889H0V11.7214H3.27917L4.91892 13.3611L6.55866 15.0009L8.1984 13.3611L9.83783 11.7214H13.1173V9.40283Z" fill="#FF6F5C"/>
<path d="M13.1173 4.76465H0V7.08353H13.1173V4.76465Z" fill="#FF6F5C"/>
<path d="M13.1173 0.126953H0V2.44584H13.1173V0.126953Z" fill="#FF6F5C"/>
<path d="M18.3321 0.126953H20.4182V11.5058H18.3321V0.126953Z" fill="white"/>
<path d="M23.6656 11.1815C23.0068 10.8178 22.4853 10.3202 22.101 9.68785C21.716 9.05583 21.524 8.36014 21.524 7.60171C21.524 6.84329 21.716 6.14791 22.101 5.51558C22.4853 4.88356 23.0068 4.38559 23.6656 4.02198C24.3237 3.65837 25.0379 3.47656 25.8071 3.47656C26.576 3.47656 27.2899 3.65837 27.9486 4.02198C28.6068 4.38559 29.1283 4.88324 29.5132 5.51558C29.8975 6.14759 30.0902 6.84329 30.0902 7.60171C30.0902 8.36014 29.8979 9.05551 29.5132 9.68785C29.1283 10.3199 28.6068 10.8178 27.9486 11.1815C27.2899 11.5451 26.576 11.7269 25.8071 11.7269C25.0379 11.7269 24.324 11.5451 23.6656 11.1815ZM26.9056 9.52228C27.2373 9.33793 27.5032 9.07717 27.7035 8.73998C27.9034 8.4028 28.004 8.02359 28.004 7.60203C28.004 7.18079 27.9037 6.80158 27.7035 6.46408C27.5032 6.1269 27.2373 5.86613 26.9056 5.68178C26.5738 5.49743 26.2073 5.40509 25.8071 5.40509C25.4066 5.40509 25.0407 5.49743 24.7086 5.68178C24.3769 5.86613 24.1107 6.1269 23.9104 6.46408C23.7098 6.80126 23.6102 7.18079 23.6102 7.60203C23.6102 8.02359 23.7098 8.4028 23.9104 8.73998C24.1104 9.07717 24.3766 9.33793 24.7086 9.52228C25.0404 9.70664 25.4062 9.79897 25.8071 9.79897C26.2073 9.79865 26.5735 9.70664 26.9056 9.52228Z" fill="white"/>
<path d="M31.1961 0.126953H33.2822V6.9069L36.0004 3.69873H38.4813L35.4155 7.31795L38.7026 11.5058H36.0319L33.2822 7.88661V11.5058H31.1961V0.126953Z" fill="white"/>
<path d="M40.6707 11.2213C40.0858 10.8841 39.6117 10.402 39.2484 9.77511C38.8848 9.14851 38.703 8.42384 38.703 7.60205C38.703 6.85414 38.8768 6.16385 39.2245 5.53184C39.5722 4.89982 40.0463 4.3993 40.6471 4.03059C41.2476 3.66189 41.9058 3.47754 42.6225 3.47754C43.1281 3.47754 43.5891 3.56191 44.005 3.73035C44.4211 3.89878 44.7398 4.12548 44.9611 4.40981V3.69851H47.0472V11.5056H44.9611V10.7943C44.6344 11.1 44.2867 11.3314 43.918 11.4897C43.549 11.6476 43.0749 11.7269 42.4954 11.7269C41.8637 11.7272 41.2556 11.5585 40.6707 11.2213ZM44.4714 9.16698C44.8611 8.74574 45.0563 8.2242 45.0563 7.60237C45.0563 6.98086 44.8611 6.45933 44.4714 6.03777C44.0817 5.61653 43.5652 5.40575 42.9227 5.40575C42.2799 5.40575 41.7634 5.61685 41.3737 6.03777C40.984 6.45933 40.7891 6.98086 40.7891 7.60237C40.7891 8.2242 40.984 8.74574 41.3737 9.16698C41.7634 9.58853 42.2796 9.79899 42.9227 9.79899C43.5652 9.79899 44.0817 9.58853 44.4714 9.16698Z" fill="white"/>
<path d="M48.5646 0.126953H50.6508V11.5058H48.5646V0.126953Z" fill="white"/>
<path d="M52.2784 2.24406C52.0256 1.99125 51.8992 1.68559 51.8992 1.3274C51.8992 0.958693 52.0256 0.645391 52.2784 0.387171C52.5312 0.129269 52.8369 0 53.1951 0C53.5635 0 53.8771 0.129269 54.1353 0.387171C54.3932 0.645391 54.5225 0.958693 54.5225 1.3274C54.5225 1.68559 54.3936 1.99125 54.1353 2.24406C53.8771 2.49687 53.5635 2.62327 53.1951 2.62327C52.8369 2.62359 52.5312 2.49687 52.2784 2.24406ZM52.1676 3.69818H54.2538V11.5053H52.1676V3.69818Z" fill="white"/>
<path d="M55.6774 10.9668L56.1515 9.0071H56.2464C56.931 9.53404 57.6317 9.79736 58.3481 9.79736C58.6433 9.79736 58.883 9.74196 59.0674 9.63147C59.2518 9.52099 59.3441 9.36052 59.3441 9.14942C59.3441 8.92813 59.2358 8.74919 59.0203 8.61228C58.8041 8.47537 58.401 8.30694 57.8113 8.10635C57.2108 7.9064 56.7447 7.61634 56.4126 7.23713C56.0808 6.85792 55.9146 6.41025 55.9146 5.89381C55.9146 5.16691 56.1856 4.58202 56.7285 4.13944C57.271 3.69687 57.9584 3.47559 58.791 3.47559C59.2123 3.47559 59.5864 3.51507 59.9131 3.59403C60.2394 3.67299 60.5505 3.80226 60.8456 3.9812L60.9246 5.97246H60.8141C60.4349 5.73015 60.0977 5.54867 59.8026 5.42736C59.5074 5.30637 59.1757 5.24555 58.8069 5.24555C58.5433 5.24555 58.3274 5.29841 58.159 5.40348C57.9906 5.50887 57.9062 5.6461 57.9062 5.81453C57.9062 6.03582 58.0116 6.21762 58.2224 6.35994C58.4328 6.50227 58.828 6.67357 59.4078 6.87352C60.0713 7.0948 60.5744 7.36353 60.917 7.6797C61.2592 7.99555 61.4305 8.48556 61.4305 9.14942C61.4305 9.69738 61.2933 10.1664 61.0195 10.5561C60.7454 10.9461 60.3846 11.2384 59.9366 11.4333C59.489 11.6281 58.9964 11.7256 58.4589 11.7256C57.3735 11.7256 56.4464 11.4728 55.6774 10.9668Z" fill="white"/>
<path d="M64.3692 11.1729C63.7158 10.8042 63.2023 10.3011 62.8282 9.66365C62.454 9.02622 62.2672 8.31779 62.2672 7.53803C62.2672 6.77961 62.4435 6.09188 62.7966 5.47578C63.1497 4.85936 63.6397 4.37221 64.2667 4.01402C64.8933 3.65582 65.602 3.47656 66.3919 3.47656C67.1924 3.47656 67.8855 3.66378 68.4701 4.03758C69.0547 4.41169 69.4972 4.90935 69.7975 5.53118C70.0977 6.15301 70.248 6.82196 70.248 7.53835V8.15477H64.2584C64.3848 8.74508 64.6561 9.19274 65.0722 9.49809C65.4883 9.80375 66.0388 9.95626 66.7237 9.95626C67.7668 9.95626 68.678 9.61398 69.4578 8.92911H69.679L69.5998 10.9044C69.1257 11.1786 68.6252 11.384 68.0985 11.5209C67.5716 11.6578 67.066 11.7262 66.5814 11.7262C65.7596 11.7259 65.0222 11.5416 64.3692 11.1729ZM68.1622 6.73185C68.1094 6.25776 67.9116 5.88619 67.5694 5.61778C67.2271 5.34937 66.8081 5.21469 66.313 5.21469C65.8284 5.21469 65.4043 5.34396 65.0407 5.60186C64.6774 5.86008 64.4322 6.23675 64.3058 6.73185H68.1622Z" fill="white"/>
</g>
<defs>
<clipPath id="clip0_3238_5122">
<rect width="70.2479" height="15" fill="white"/>
</clipPath>
</defs>
</svg>
